<svg id="Layer_1" data-name="Layer 1" xmlns="http://www.w3.org/2000/svg" viewBox="0 0 27.88 30.7"><defs><style>.cls-1{fill:#9cafa0;}.cls-1,.cls-2,.cls-3{fill-rule:evenodd;}.cls-2{fill:#63c2a3;}.cls-3{fill:#fff;}</style></defs><polygon class="cls-1" points="13.36 8.1 13.36 10.55 13.11 10.44 12.47 10.15 12.23 10.03 11.59 9.73 11.35 9.61 10.71 9.32 10.46 9.2 9.83 8.9 9.58 8.79 8.95 8.48 8.69 8.37 8.2 8.13 8.2 5.68 8.69 5.91 8.95 6.03 9.58 6.33 9.83 6.45 10.46 6.75 10.71 6.87 11.35 7.16 11.59 7.27 12.23 7.58 12.47 7.69 13.11 7.98 13.36 8.1"/><polygon class="cls-1" points="13.36 8.1 13.36 30.57 13.11 30.7 13.11 7.98 13.36 8.1"/><polygon class="cls-1" points="12.47 7.69 12.47 30.57 12.23 30.7 12.23 7.58 12.47 7.69"/><polygon class="cls-1" points="11.59 7.27 11.59 30.57 11.35 30.7 11.35 7.16 11.59 7.27"/><polygon class="cls-1" points="10.71 6.87 10.71 30.57 10.46 30.7 10.46 6.75 10.71 6.87"/><polygon class="cls-1" points="9.83 6.45 9.83 30.57 9.58 30.7 9.58 6.33 9.83 6.45"/><polygon class="cls-1" points="8.95 6.03 8.95 30.57 8.69 30.7 8.69 5.91 8.95 6.03"/><polygon class="cls-2" points="14.78 3.54 14.78 22.86 8.2 22.86 8.2 8.46 8.2 5.68 8.2 5.68 8.2 11.22 8.2 5.68 0.24 9.22 0.24 30.7 22.48 30.7 22.48 0 14.78 3.54"/><polygon class="cls-1" points="27.64 4.88 22.48 2.46 22.48 0 27.64 2.42 27.64 4.88"/><polygon class="cls-3" points="18.27 7.45 16.16 8.41 16.16 6.31 18.27 5.34 18.27 7.45"/><polygon class="cls-3" points="21.17 6.12 19.07 7.09 19.07 4.97 21.17 4 21.17 6.12"/><polygon class="cls-3" points="18.27 10.53 16.16 11.5 16.16 9.39 18.27 8.42 18.27 10.53"/><polygon class="cls-3" points="21.17 9.2 19.07 10.17 19.07 8.05 21.17 7.09 21.17 9.2"/><polygon class="cls-3" points="3.78 12.51 1.69 13.47 1.69 11.37 3.78 10.4 3.78 12.51"/><polygon class="cls-3" points="6.69 11.18 4.6 12.15 4.6 10.03 6.69 9.06 6.69 11.18"/><polygon class="cls-3" points="3.78 15.59 1.69 16.56 1.69 14.45 3.78 13.49 3.78 15.59"/><polygon class="cls-3" points="6.69 14.27 4.6 15.23 4.6 13.11 6.69 12.15 6.69 14.27"/><polygon class="cls-1" points="27.39 30.7 27.64 30.57 27.64 2.42 27.39 2.42 27.39 30.7"/><polygon class="cls-1" points="26.51 30.7 26.75 30.57 26.75 2.42 26.51 2.42 26.51 30.7"/><polygon class="cls-1" points="25.62 30.7 25.87 30.57 25.87 2.42 25.62 2.42 25.62 30.7"/><polygon class="cls-1" points="24.74 30.7 24.99 30.57 24.99 2.42 24.74 2.42 24.74 30.7"/><polygon class="cls-1" points="23.87 30.7 24.11 30.57 24.11 2.42 23.87 2.42 23.87 30.7"/><polygon class="cls-1" points="22.98 30.7 23.23 30.57 23.23 2.42 22.98 2.42 22.98 30.7"/></svg>