<svg id="Layer_1" data-name="Layer 1" xmlns="http://www.w3.org/2000/svg" viewBox="0 0 60 60"><defs><style>.cls-1{fill:#63caa2;}</style></defs><path class="cls-1" d="M47.47,23.2a6.6,6.6,0,0,0-1.28,2.19,6.6,6.6,0,0,0,0,2.62,4.06,4.06,0,0,1-.09,2.34,4.13,4.13,0,0,1-2,1.27,6.66,6.66,0,0,0-2.25,1.28,6.85,6.85,0,0,0-1.29,2.25,4,4,0,0,1-1.26,2,4.06,4.06,0,0,1-2.34.09,7,7,0,0,0-2.62,0,6.67,6.67,0,0,0-2.19,1.28A4.18,4.18,0,0,1,30,39.65a4.18,4.18,0,0,1-2.15-1.13,6.67,6.67,0,0,0-2.19-1.28,4.29,4.29,0,0,0-1.07-.13,11.59,11.59,0,0,0-1.55.14,4.06,4.06,0,0,1-2.34-.09,4,4,0,0,1-1.26-2,6.85,6.85,0,0,0-1.29-2.25,6.66,6.66,0,0,0-2.25-1.28,4.13,4.13,0,0,1-2-1.27A4.06,4.06,0,0,1,13.8,28a6.6,6.6,0,0,0,0-2.62,6.6,6.6,0,0,0-1.28-2.19,4.14,4.14,0,0,1-1.13-2.15,4.11,4.11,0,0,1,1.13-2.14,6.64,6.64,0,0,0,1.28-2.2,6.56,6.56,0,0,0,0-2.61,4.09,4.09,0,0,1,.09-2.35,4.2,4.2,0,0,1,2-1.26,6.83,6.83,0,0,0,2.25-1.28A7,7,0,0,0,19.44,7a4,4,0,0,1,1.26-2A4.07,4.07,0,0,1,23,4.86a6.79,6.79,0,0,0,2.62,0,6.34,6.34,0,0,0,2.19-1.28A4.18,4.18,0,0,1,30,2.45a4.18,4.18,0,0,1,2.15,1.13,6.34,6.34,0,0,0,2.19,1.28,6.79,6.79,0,0,0,2.62,0,4.07,4.07,0,0,1,2.34.08,4,4,0,0,1,1.26,2,7,7,0,0,0,1.29,2.25,6.83,6.83,0,0,0,2.25,1.28,4.2,4.2,0,0,1,2,1.26,4.09,4.09,0,0,1,.09,2.35,6.56,6.56,0,0,0,0,2.61,6.64,6.64,0,0,0,1.28,2.2,4.11,4.11,0,0,1,1.13,2.14,4.14,4.14,0,0,1-1.13,2.15ZM47,53.46a.15.15,0,0,1-.18,0l-6.34-2.93a1.63,1.63,0,0,0-2.11.72l-3.25,6.18a.13.13,0,0,1-.15.08.14.14,0,0,1-.14-.1L30.77,45.5,32.64,40l.39-.3a5.6,5.6,0,0,1,1.68-1,5.77,5.77,0,0,1,2.06,0A5,5,0,0,0,40,38.42a3.72,3.72,0,0,0,1.4-1.64L47,53.29a.14.14,0,0,1,0,.17Zm-21.81,4a.14.14,0,0,1-.14.1.13.13,0,0,1-.15-.08l-3.26-6.18a1.61,1.61,0,0,0-2.1-.72l-6.35,2.93a.14.14,0,0,1-.17,0,.14.14,0,0,1,0-.17l5.6-16.51A3.72,3.72,0,0,0,20,38.42a5,5,0,0,0,3.26.27,5.77,5.77,0,0,1,2.06,0,5.6,5.6,0,0,1,1.68,1,5.21,5.21,0,0,0,3,1.43,2.79,2.79,0,0,0,.76-.11L25.18,57.44ZM48.62,24.09a5.23,5.23,0,0,0,1.43-3,5.24,5.24,0,0,0-1.43-3,5.82,5.82,0,0,1-1-1.68,5.79,5.79,0,0,1,0-2.06A5.16,5.16,0,0,0,47.37,11a5.2,5.2,0,0,0-2.72-1.88,5.62,5.62,0,0,1-1.77-1,5.6,5.6,0,0,1-1-1.78A5.2,5.2,0,0,0,40,3.68a5.16,5.16,0,0,0-3.26-.27,5.79,5.79,0,0,1-2.06,0,5.6,5.6,0,0,1-1.68-1A5.21,5.21,0,0,0,30,1a5.21,5.21,0,0,0-3,1.43,5.6,5.6,0,0,1-1.68,1,5.79,5.79,0,0,1-2.06,0A5.16,5.16,0,0,0,20,3.68,5.2,5.2,0,0,0,18.09,6.4a5.6,5.6,0,0,1-1,1.78,5.62,5.62,0,0,1-1.77,1A5.2,5.2,0,0,0,12.63,11a5.16,5.16,0,0,0-.27,3.26,5.79,5.79,0,0,1,.05,2.06,5.82,5.82,0,0,1-1,1.68,5.24,5.24,0,0,0-1.43,3,5.23,5.23,0,0,0,1.43,3,5.57,5.57,0,0,1,1,1.68,5.74,5.74,0,0,1-.05,2.05,5.16,5.16,0,0,0,.27,3.26A5.09,5.09,0,0,0,15.35,33a5.63,5.63,0,0,1,1.77,1,3.28,3.28,0,0,1,.58.88l-6.11,18a1.61,1.61,0,0,0,2.2,2l6.35-2.93a.17.17,0,0,1,.21.07l3.25,6.19A1.59,1.59,0,0,0,25,59h.14a1.59,1.59,0,0,0,1.4-1.09L30,47.76,33.44,57.9A1.59,1.59,0,0,0,34.84,59H35a1.59,1.59,0,0,0,1.42-.86L39.65,52a.17.17,0,0,1,.21-.07l6.34,2.93a1.61,1.61,0,0,0,2.21-2l-6.11-18a3.28,3.28,0,0,1,.58-.88,5.63,5.63,0,0,1,1.77-1,5.09,5.09,0,0,0,2.72-1.88,5.16,5.16,0,0,0,.27-3.26,5.74,5.74,0,0,1,0-2.05,5.57,5.57,0,0,1,1-1.68Z"/><path class="cls-1" d="M38.41,17.53l-10.7,10.7a.44.44,0,0,1-.32.13.4.4,0,0,1-.31-.13l-5.49-5.49a.44.44,0,0,1,0-.62L23,20.69a.42.42,0,0,1,.32-.13.42.42,0,0,1,.31.13l3.23,3.23a.74.74,0,0,0,1,0l8.44-8.45a.46.46,0,0,1,.31-.13.46.46,0,0,1,.32.13l1.43,1.43a.45.45,0,0,1,0,.63ZM38,14.44a1.91,1.91,0,0,0-2.69,0l-7.93,7.93-2.71-2.71a1.9,1.9,0,0,0-2.69,0l-1.43,1.43a1.9,1.9,0,0,0,0,2.68l5.49,5.49a1.9,1.9,0,0,0,2.69,0l10.7-10.7a1.91,1.91,0,0,0,0-2.69L38,14.44Z"/></svg>