<svg id="Layer_1" data-name="Layer 1" xmlns="http://www.w3.org/2000/svg" viewBox="0 0 60 60"><defs><style>.cls-1{fill:#63caa2;fill-rule:evenodd;}</style></defs><polygon class="cls-1" points="32.95 43.13 35.62 43.13 35.62 38.26 32.95 38.52 32.95 43.13 32.95 43.13"/><polygon class="cls-1" points="6.77 34.53 9.44 34.53 9.44 39.41 6.77 39.15 6.77 34.53 6.77 34.53"/><polygon class="cls-1" points="27.05 34.53 24.39 34.53 24.39 39.41 27.05 39.15 27.05 34.53 27.05 34.53"/><polygon class="cls-1" points="27.05 40.61 24.39 40.87 24.39 46.05 27.05 45.7 27.05 40.61 27.05 40.61"/><polygon class="cls-1" points="22.93 34.53 19.77 34.53 19.77 39.86 22.93 39.55 22.93 34.53 22.93 34.53"/><polygon class="cls-1" points="22.93 41.01 19.77 41.32 19.77 46.65 22.93 46.23 22.93 41.01 22.93 41.01"/><polygon class="cls-1" points="6.77 40.61 9.44 40.87 9.44 46.05 6.77 45.7 6.77 40.61 6.77 40.61"/><polygon class="cls-1" points="10.9 34.53 14.05 34.53 14.05 39.86 10.9 39.55 10.9 34.53 10.9 34.53"/><polygon class="cls-1" points="10.9 41.01 14.05 41.32 14.05 46.65 10.9 46.23 10.9 41.01 10.9 41.01"/><polygon class="cls-1" points="6.77 33.09 9.44 33.09 9.44 28.22 6.77 28.48 6.77 33.09 6.77 33.09"/><polygon class="cls-1" points="27.05 33.09 24.39 33.09 24.39 28.22 27.05 28.48 27.05 33.09 27.05 33.09"/><polygon class="cls-1" points="27.05 14.05 24.39 13.55 24.39 8.53 27.05 9.03 27.05 14.05 27.05 14.05"/><polygon class="cls-1" points="27.05 20.46 24.39 20.11 24.39 15.03 27.05 15.53 27.05 20.46 27.05 20.46"/><polygon class="cls-1" points="27.05 27.02 24.39 26.76 24.39 21.58 27.05 21.93 27.05 27.02 27.05 27.02"/><polygon class="cls-1" points="22.93 33.09 19.77 33.09 19.77 27.77 22.93 28.08 22.93 33.09 22.93 33.09"/><polygon class="cls-1" points="22.93 26.62 19.77 26.31 19.77 20.98 22.93 21.39 22.93 26.62 22.93 26.62"/><polygon class="cls-1" points="22.93 13.27 19.77 12.68 19.77 7.67 22.93 8.26 22.93 13.27 22.93 13.27"/><polygon class="cls-1" points="22.93 19.93 19.77 19.52 19.77 14.16 22.93 14.75 22.93 19.93 22.93 19.93"/><polygon class="cls-1" points="16.91 1.93 31.32 5.73 31.32 15.06 43.09 11.96 43.09 11.96 43.09 11.96 57.5 15.76 57.5 58.08 52.84 58.08 52.84 55.84 54.94 55.84 54.78 17.41 44.49 14.89 44.49 58.08 44.49 58.08 41.68 58.08 41.68 58.08 41.68 14.89 31.39 17.41 31.32 33.9 31.32 55.84 33.33 55.84 33.33 58.08 31.32 58.08 28.68 58.08 26.67 58.08 26.67 55.84 28.68 55.84 28.68 28.19 28.61 7.38 18.32 4.85 18.32 58.08 18.32 58.08 15.51 58.08 15.51 58.08 15.51 4.85 5.22 7.38 5.06 55.84 7.16 55.84 7.16 58.08 2.5 58.08 2.5 5.73 16.91 1.93 16.91 1.93 16.91 1.93 16.91 1.93"/><polygon class="cls-1" points="6.77 14.05 9.44 13.55 9.44 8.53 6.77 9.03 6.77 14.05 6.77 14.05"/><polygon class="cls-1" points="6.77 20.46 9.44 20.11 9.44 15.03 6.77 15.53 6.77 20.46 6.77 20.46"/><polygon class="cls-1" points="6.77 27.02 9.44 26.76 9.44 21.58 6.77 21.93 6.77 27.02 6.77 27.02"/><polygon class="cls-1" points="10.9 33.09 14.05 33.09 14.05 27.77 10.9 28.08 10.9 33.09 10.9 33.09"/><polygon class="cls-1" points="10.9 26.62 14.05 26.31 14.05 20.98 10.9 21.39 10.9 26.62 10.9 26.62"/><polygon class="cls-1" points="10.9 13.27 14.05 12.68 14.05 7.67 10.9 8.26 10.9 13.27 10.9 13.27"/><polygon class="cls-1" points="10.9 19.93 14.05 19.52 14.05 14.16 10.9 14.75 10.9 19.93 10.9 19.93"/><polygon class="cls-1" points="53.23 43.13 50.56 43.13 50.56 38.26 53.23 38.52 53.23 43.13 53.23 43.13"/><polygon class="cls-1" points="53.23 24.08 50.56 23.58 50.56 18.56 53.23 19.06 53.23 24.08 53.23 24.08"/><polygon class="cls-1" points="53.23 30.5 50.56 30.15 50.56 25.06 53.23 25.56 53.23 30.5 53.23 30.5"/><polygon class="cls-1" points="53.23 37.05 50.56 36.79 50.56 31.62 53.23 31.96 53.23 37.05 53.23 37.05"/><polygon class="cls-1" points="49.1 43.13 45.95 43.13 45.95 37.8 49.1 38.11 49.1 43.13 49.1 43.13"/><polygon class="cls-1" points="49.1 36.65 45.95 36.34 45.95 31.02 49.1 31.43 49.1 36.65 49.1 36.65"/><polygon class="cls-1" points="49.1 23.31 45.95 22.71 45.95 17.7 49.1 18.29 49.1 23.31 49.1 23.31"/><polygon class="cls-1" points="49.1 29.96 45.95 29.55 45.95 24.19 49.1 24.79 49.1 29.96 49.1 29.96"/><polygon class="cls-1" points="32.95 24.08 35.62 23.58 35.62 18.56 32.95 19.06 32.95 24.08 32.95 24.08"/><polygon class="cls-1" points="32.95 30.5 35.62 30.15 35.62 25.06 32.95 25.56 32.95 30.5 32.95 30.5"/><polygon class="cls-1" points="32.95 37.05 35.62 36.79 35.62 31.62 32.95 31.96 32.95 37.05 32.95 37.05"/><polygon class="cls-1" points="37.07 43.13 40.23 43.13 40.23 37.8 37.07 38.11 37.07 43.13 37.07 43.13"/><polygon class="cls-1" points="37.07 36.65 40.23 36.34 40.23 31.02 37.07 31.43 37.07 36.65 37.07 36.65"/><polygon class="cls-1" points="37.07 23.31 40.23 22.71 40.23 17.7 37.07 18.29 37.07 23.31 37.07 23.31"/><polygon class="cls-1" points="37.07 29.96 40.23 29.55 40.23 24.19 37.07 24.79 37.07 29.96 37.07 29.96"/></svg>