<svg id="Layer_1" data-name="Layer 1" xmlns="http://www.w3.org/2000/svg" viewBox="0 0 60 60"><defs><style>.cls-1{fill:none;stroke:#63caa2;stroke-miterlimit:10;stroke-width:2px;}</style></defs><path class="cls-1" d="M17.48,19.25h0a2.78,2.78,0,0,1,0-3.92L29.24,3.57a2.78,2.78,0,0,1,3.92,0h0a2.78,2.78,0,0,1,0,3.92L21.4,19.25a2.78,2.78,0,0,1-3.92,0Z"/><path class="cls-1" d="M15.63,14.79l-.23-.23a1.68,1.68,0,0,1,0-2.38L26.09,1.49a1.7,1.7,0,0,1,2.38,0l.23.23a1.69,1.69,0,0,1,0,2.39L18,14.79a1.68,1.68,0,0,1-2.38,0Z"/><path class="cls-1" d="M35.77,37.55h0a2.79,2.79,0,0,0,3.93,0L51.46,25.79a2.78,2.78,0,0,0,0-3.92h0a2.78,2.78,0,0,0-3.92,0L35.77,33.63a2.79,2.79,0,0,0,0,3.92Z"/><path class="cls-1" d="M40.24,39.4l.22.23a1.71,1.71,0,0,0,2.39,0L53.53,28.94a1.68,1.68,0,0,0,0-2.38l-.22-.23a1.69,1.69,0,0,0-2.39,0L40.24,37a1.69,1.69,0,0,0,0,2.39Z"/><polygon class="cls-1" points="36.43 32.98 22.05 18.6 32.51 8.14 46.88 22.52 36.43 32.98 36.43 32.98"/><polygon class="cls-1" points="28.26 24.81 30.22 26.77 23.68 33.3 21.72 31.34 28.26 24.81 28.26 24.81"/><polygon class="cls-1" points="19.6 31.83 23.19 35.43 4.89 53.73 1.3 50.13 19.6 31.83 19.6 31.83"/><path class="cls-1" d="M20.09,29.71l5.23,5.23a.92.92,0,0,1,0,1.3h0a.93.93,0,0,1-1.31,0L18.78,31a.93.93,0,0,1,0-1.31h0a.93.93,0,0,1,1.31,0Z"/><path class="cls-1" d="M58.7,56.39h0a2.61,2.61,0,0,0-2.61-2.61H40.42a2.61,2.61,0,0,0-2.61,2.61h0A2.62,2.62,0,0,0,40.42,59H56.09a2.62,2.62,0,0,0,2.61-2.61Z"/><path class="cls-1" d="M57,52.19v-.31a1.6,1.6,0,0,0-1.59-1.59H41.14a1.6,1.6,0,0,0-1.59,1.59v.31a1.6,1.6,0,0,0,1.59,1.59H55.37A1.6,1.6,0,0,0,57,52.19Z"/></svg>