<?xml version="1.0" encoding="utf-8"?>
<!-- Generator: Adobe Illustrator 26.0.1, SVG Export Plug-In . SVG Version: 6.00 Build 0)  -->
<svg version="1.1" id="Layer_1" xmlns="http://www.w3.org/2000/svg" xmlns:xlink="http://www.w3.org/1999/xlink" x="0px" y="0px"
	 viewBox="0 0 100 30.7" style="enable-background:new 0 0 100 30.7;" xml:space="preserve">
<style type="text/css">
	.st0{fill-rule:evenodd;clip-rule:evenodd;fill:#9CAFA0;}
	.st1{fill-rule:evenodd;clip-rule:evenodd;fill:#63C2A3;}
	.st2{fill-rule:evenodd;clip-rule:evenodd;fill:#FFFFFF;}
	.st3{fill:#FFFFFF;}
</style>
<g>
	<g>
		<polygon class="st0" points="13.6,8.1 13.6,10.6 13.4,10.4 12.7,10.1 12.5,10 11.8,9.7 11.6,9.6 11,9.3 10.7,9.2 10.1,8.9 
			9.8,8.8 9.2,8.5 8.9,8.4 8.4,8.1 8.4,5.7 8.9,5.9 9.2,6 9.8,6.3 10.1,6.4 10.7,6.7 11,6.9 11.6,7.2 11.8,7.3 12.5,7.6 12.7,7.7 
			13.4,8 		"/>
		<polygon class="st0" points="13.6,8.1 13.6,30.6 13.4,30.7 13.4,8 		"/>
		<polygon class="st0" points="12.7,7.7 12.7,30.6 12.5,30.7 12.5,7.6 		"/>
		<polygon class="st0" points="11.8,7.3 11.8,30.6 11.6,30.7 11.6,7.2 		"/>
		<polygon class="st0" points="11,6.9 11,30.6 10.7,30.7 10.7,6.7 		"/>
		<polygon class="st0" points="10.1,6.4 10.1,30.6 9.8,30.7 9.8,6.3 		"/>
		<polygon class="st0" points="9.2,6 9.2,30.6 8.9,30.7 8.9,5.9 		"/>
		<polygon class="st1" points="15,3.5 15,22.9 8.4,22.9 8.4,8.5 8.4,5.7 8.4,5.7 8.4,11.2 8.4,5.7 0.5,9.2 0.5,30.7 22.7,30.7 
			22.7,0 		"/>
		<polygon class="st0" points="27.9,4.9 22.7,2.5 22.7,0 27.9,2.4 		"/>
		<polygon class="st2" points="18.5,7.4 16.4,8.4 16.4,6.3 18.5,5.3 		"/>
		<polygon class="st2" points="21.4,6.1 19.3,7.1 19.3,5 21.4,4 		"/>
		<polygon class="st2" points="18.5,10.5 16.4,11.5 16.4,9.4 18.5,8.4 		"/>
		<polygon class="st2" points="21.4,9.2 19.3,10.2 19.3,8.1 21.4,7.1 		"/>
		<polygon class="st2" points="4,12.5 1.9,13.5 1.9,11.4 4,10.4 		"/>
		<polygon class="st2" points="6.9,11.2 4.8,12.1 4.8,10 6.9,9.1 		"/>
		<polygon class="st2" points="4,15.6 1.9,16.6 1.9,14.5 4,13.5 		"/>
		<polygon class="st2" points="6.9,14.3 4.8,15.2 4.8,13.1 6.9,12.1 		"/>
		<polygon class="st0" points="27.6,30.7 27.9,30.6 27.9,2.4 27.6,2.4 		"/>
		<polygon class="st0" points="26.8,30.7 27,30.6 27,2.4 26.8,2.4 		"/>
		<polygon class="st0" points="25.9,30.7 26.1,30.6 26.1,2.4 25.9,2.4 		"/>
		<polygon class="st0" points="25,30.7 25.2,30.6 25.2,2.4 25,2.4 		"/>
		<polygon class="st0" points="24.1,30.7 24.4,30.6 24.4,2.4 24.1,2.4 		"/>
		<polygon class="st0" points="23.2,30.7 23.5,30.6 23.5,2.4 23.2,2.4 		"/>
	</g>
	<g>
		<g>
			<path class="st0" d="M32.1,13.6c1.6,0,2.5-0.9,2.5-2.5V8.1h-1.3v3c0,1-0.4,1.5-1.2,1.5c-0.8,0-1.2-0.4-1.2-1.5v-3h-1.3v3.1
				C29.7,12.8,30.6,13.6,32.1,13.6z"/>
			<path class="st0" d="M40.8,10.1c0,0.6-0.4,1-1.2,1h-1V9.1h1C40.4,9.1,40.8,9.5,40.8,10.1z M42.2,13.6L41,11.8
				c0.7-0.3,1.1-0.9,1.1-1.7c0-1.2-0.9-2-2.4-2h-2.4v5.5h1.3V12h1.1h0.1l1.1,1.5H42.2z"/>
			<path class="st0" d="M47.4,12.6h-1.5v-1.3h1.5c0.7,0,1,0.2,1,0.7C48.4,12.4,48,12.6,47.4,12.6z M47.1,9c0.6,0,1,0.2,1,0.6
				c0,0.4-0.3,0.7-1,0.7h-1.3V9C45.9,9,47.1,9,47.1,9z M48.7,10.7c0.4-0.2,0.7-0.7,0.7-1.2c0-0.8-0.7-1.4-2.1-1.4h-2.7v5.5h2.8
				c1.4,0,2.2-0.5,2.2-1.5C49.7,11.4,49.3,10.9,48.7,10.7z"/>
			<path class="st0" d="M53.5,11.4l0.9-2.1l0.9,2.1H53.5z M56.2,13.6h1.3L55,8.1h-1.3l-2.4,5.5h1.3l0.5-1.2h2.5L56.2,13.6z"/>
			<polygon class="st0" points="63.3,8.1 63.3,11.4 60.6,8.1 59.6,8.1 59.6,13.6 60.8,13.6 60.8,10.2 63.5,13.6 64.6,13.6 64.6,8.1 
							"/>
			<path class="st1" d="M69.2,13.6c1.6,0,2.3-0.8,2.3-1.7c0-2-3.2-1.3-3.2-2.3c0-0.3,0.3-0.6,1-0.6c0.5,0,1,0.1,1.5,0.4l0.4-1
				C70.8,8.1,70.1,8,69.4,8c-1.6,0-2.3,0.8-2.3,1.7c0,2,3.2,1.3,3.2,2.4c0,0.3-0.3,0.6-1.1,0.6c-0.7,0-1.3-0.2-1.8-0.6L67,13
				C67.5,13.4,68.4,13.6,69.2,13.6z"/>
			<path class="st1" d="M76.3,11h-1V9.1h1c0.8,0,1.2,0.3,1.2,1C77.4,10.7,77,11,76.3,11z M76.3,8.1H74v5.5h1.3V12h1.1
				c1.5,0,2.4-0.8,2.4-2C78.7,8.8,77.8,8.1,76.3,8.1z"/>
			<path class="st1" d="M82.2,11.4l0.9-2.1l0.9,2.1H82.2z M84.8,13.6h1.3l-2.4-5.5h-1.3L80,13.6h1.3l0.5-1.2h2.5L84.8,13.6z"/>
			<path class="st1" d="M90.6,13.6c1,0,1.7-0.3,2.3-1L92,11.9c-0.4,0.4-0.8,0.7-1.4,0.7c-1,0-1.8-0.7-1.8-1.8s0.7-1.8,1.8-1.8
				c0.5,0,1,0.2,1.4,0.6l0.8-0.8c-0.5-0.6-1.3-1-2.3-1c-1.7,0-3,1.2-3,2.8S88.9,13.6,90.6,13.6z"/>
			<polygon class="st1" points="96.4,12.5 96.4,11.3 99,11.3 99,10.3 96.4,10.3 96.4,9.1 99.3,9.1 99.3,8.1 95.1,8.1 95.1,13.6 
				99.4,13.6 99.4,12.5 			"/>
		</g>
		<g>
			<path class="st2" d="M59.7,22.2c-0.2,0.2-0.5,0.2-0.8,0.2c-0.8,0-1.4-0.6-1.4-1.3s0.6-1.3,1.4-1.3c0.4,0,0.7,0.1,1,0.4l0.2-0.2
				c-0.3-0.3-0.7-0.5-1.2-0.5c-1,0-1.7,0.7-1.7,1.6c0,0.9,0.7,1.6,1.7,1.6c0.4,0,0.9-0.1,1.2-0.4v-1.2h-0.3V22.2z"/>
			<path class="st2" d="M62.1,21.4h-0.8v-1.6h0.8c0.6,0,1,0.3,1,0.8C63.1,21.1,62.8,21.4,62.1,21.4z M63.5,22.7l-0.8-1.1
				c0.5-0.2,0.7-0.5,0.7-1c0-0.7-0.5-1.1-1.3-1.1h-1.2v3.2h0.3v-1h0.9c0.1,0,0.2,0,0.3,0l0.7,1L63.5,22.7L63.5,22.7z"/>
			<path class="st2" d="M65.6,22.4c-0.8,0-1.3-0.6-1.3-1.3c0-0.8,0.6-1.3,1.3-1.3c0.8,0,1.3,0.6,1.3,1.3S66.4,22.4,65.6,22.4z
				 M65.6,22.7c1,0,1.7-0.7,1.7-1.6c0-0.9-0.7-1.6-1.7-1.6c-1,0-1.7,0.7-1.7,1.6C64,22,64.7,22.7,65.6,22.7z"/>
			<path class="st2" d="M69.4,22.7c0.8,0,1.3-0.5,1.3-1.4v-1.8h-0.3v1.8c0,0.8-0.4,1.1-1,1.1s-1-0.3-1-1.1v-1.8H68v1.8
				C68,22.2,68.5,22.7,69.4,22.7z"/>
			<path class="st2" d="M72.9,21.4H72v-1.6h0.8c0.6,0,1,0.3,1,0.8C73.8,21.1,73.5,21.4,72.9,21.4z M72.9,19.5h-1.2v3.2H72v-1h0.9
				c0.8,0,1.3-0.4,1.3-1.1C74.2,19.9,73.7,19.5,72.9,19.5z"/>
		</g>
	</g>
</g>
</svg>
